<svg width="20" height="20" viewBox="0 0 20 20" fill="none" xmlns="http://www.w3.org/2000/svg">
<path d="M7.4974 13.332L9.9974 10.832M9.9974 10.832L12.4974 13.332M9.9974 10.832V16.6654M18.3307 7.4987H1.66406M4.58073 14.9987H4.33073C3.39731 14.9987 2.9306 14.9987 2.57408 14.817C2.26047 14.6573 2.0055 14.4023 1.84572 14.0887C1.66406 13.7322 1.66406 13.2654 1.66406 12.332V5.9987C1.66406 5.06528 1.66406 4.59856 1.84572 4.24205C2.0055 3.92844 2.26048 3.67347 2.57408 3.51369C2.9306 3.33203 3.39731 3.33203 4.33073 3.33203H15.6641C16.5975 3.33203 17.0642 3.33203 17.4207 3.51369C17.7343 3.67348 17.9893 3.92845 18.1491 4.24205C18.3307 4.59856 18.3307 5.06528 18.3307 5.9987V12.332C18.3307 13.2654 18.3307 13.7322 18.1491 14.0887C17.9893 14.4023 17.7343 14.6573 17.4207 14.817C17.0642 14.9987 16.5975 14.9987 15.6641 14.9987H15.4141" stroke="#26A8F7" stroke-width="1.5" stroke-linecap="round" stroke-linejoin="round"/>
</svg>
